<svg width="24" height="19" viewBox="0 0 24 19" fill="none" xmlns="http://www.w3.org/2000/svg">
<path d="M17.4688 5.74707V5.20312C17.4688 2.75391 13.7744 0.90625 8.875 0.90625C3.97559 0.90625 0.28125 2.75391 0.28125 5.20312V9.10938C0.28125 11.1494 2.84473 12.7705 6.53125 13.2559V13.7969C6.53125 16.2461 10.2256 18.0938 15.125 18.0938C20.0244 18.0938 23.7188 16.2461 23.7188 13.7969V9.89062C23.7188 7.86914 21.2363 6.24609 17.4688 5.74707ZM4.96875 11.3428C3.05566 10.8086 1.84375 9.92871 1.84375 9.10938V7.73535C2.64062 8.2998 3.70801 8.75488 4.96875 9.06055V11.3428ZM12.7812 9.06055C14.042 8.75488 15.1094 8.2998 15.9062 7.73535V9.10938C15.9062 9.92871 14.6943 10.8086 12.7812 11.3428V9.06055ZM11.2188 16.0303C9.30566 15.4961 8.09375 14.6162 8.09375 13.7969V13.3896C8.35059 13.3994 8.61035 13.4062 8.875 13.4062C9.25391 13.4062 9.62402 13.3936 9.9873 13.3721C10.3909 13.5165 10.802 13.6391 11.2188 13.7393V16.0303ZM11.2188 11.6729C10.4428 11.7875 9.65939 11.8446 8.875 11.8438C8.09061 11.8446 7.30722 11.7875 6.53125 11.6729V9.34961C7.30838 9.45087 8.0913 9.50111 8.875 9.5C9.6587 9.50111 10.4416 9.45087 11.2188 9.34961V11.6729ZM17.4688 16.3604C15.9146 16.5882 14.3354 16.5882 12.7812 16.3604V14.0312C13.5581 14.1357 14.3411 14.1879 15.125 14.1875C15.9087 14.1886 16.6916 14.1384 17.4688 14.0371V16.3604ZM22.1562 13.7969C22.1562 14.6162 20.9443 15.4961 19.0312 16.0303V13.748C20.292 13.4424 21.3594 12.9873 22.1562 12.4229V13.7969Z" fill="white"/>
</svg>
