<svg width="17" height="16" viewBox="0 0 17 16" fill="none" xmlns="http://www.w3.org/2000/svg">
<path d="M11.4688 9.78125C11.4688 10.2537 11.2811 10.7067 10.947 11.0408C10.613 11.3748 10.1599 11.5625 9.6875 11.5625H6.71875V8H9.6875C10.1599 8 10.613 8.18767 10.947 8.52172C11.2811 8.85577 11.4688 9.30883 11.4688 9.78125ZM16.2188 8C16.2188 9.52662 15.7661 11.019 14.9179 12.2883C14.0698 13.5576 12.8643 14.547 11.4538 15.1312C10.0434 15.7154 8.49144 15.8683 6.99415 15.5704C5.49686 15.2726 4.12151 14.5375 3.04202 13.458C1.96254 12.3785 1.2274 11.0031 0.929567 9.50585C0.631737 8.00856 0.784594 6.45658 1.36881 5.04616C1.95302 3.63574 2.94235 2.43024 4.2117 1.58209C5.48104 0.733947 6.97338 0.28125 8.5 0.28125C10.5465 0.283411 12.5085 1.09733 13.9556 2.54441C15.4027 3.99148 16.2166 5.95352 16.2188 8ZM12.6563 9.78125C12.6561 9.29539 12.5368 8.81698 12.3086 8.38801C12.0805 7.95904 11.7506 7.59262 11.3478 7.3209C11.6485 7.02655 11.8657 6.65758 11.977 6.25175C12.0883 5.84592 12.0898 5.4178 11.9813 5.01121C11.8728 4.60462 11.6582 4.23416 11.3595 3.93774C11.0608 3.64132 10.6887 3.42959 10.2813 3.32422V2.65625C10.2813 2.49878 10.2187 2.34776 10.1073 2.23641C9.996 2.12506 9.84498 2.0625 9.6875 2.0625C9.53003 2.0625 9.37901 2.12506 9.26766 2.23641C9.15631 2.34776 9.09375 2.49878 9.09375 2.65625V3.25H7.90625V2.65625C7.90625 2.49878 7.8437 2.34776 7.73235 2.23641C7.621 2.12506 7.46998 2.0625 7.3125 2.0625C7.15503 2.0625 7.00401 2.12506 6.89266 2.23641C6.78131 2.34776 6.71875 2.49878 6.71875 2.65625V3.25H5.53125C5.37378 3.25 5.22276 3.31256 5.11141 3.42391C5.00006 3.53526 4.9375 3.68628 4.9375 3.84375C4.9375 4.00122 5.00006 4.15224 5.11141 4.26359C5.22276 4.37494 5.37378 4.4375 5.53125 4.4375V11.5625C5.37378 11.5625 5.22276 11.6251 5.11141 11.7364C5.00006 11.8478 4.9375 11.9988 4.9375 12.1562C4.9375 12.3137 5.00006 12.4647 5.11141 12.5761C5.22276 12.6874 5.37378 12.75 5.53125 12.75H6.71875V13.3438C6.71875 13.5012 6.78131 13.6522 6.89266 13.7636C7.00401 13.8749 7.15503 13.9375 7.3125 13.9375C7.46998 13.9375 7.621 13.8749 7.73235 13.7636C7.8437 13.6522 7.90625 13.5012 7.90625 13.3438V12.75H9.09375V13.3438C9.09375 13.5012 9.15631 13.6522 9.26766 13.7636C9.37901 13.8749 9.53003 13.9375 9.6875 13.9375C9.84498 13.9375 9.996 13.8749 10.1073 13.7636C10.2187 13.6522 10.2813 13.5012 10.2813 13.3438V12.6899C10.9514 12.5524 11.5535 12.188 11.9862 11.6581C12.4189 11.1282 12.6555 10.4653 12.6563 9.78125ZM10.875 5.625C10.875 5.31006 10.7499 5.00801 10.5272 4.78531C10.3045 4.56261 10.0024 4.4375 9.6875 4.4375H6.71875V6.8125H9.6875C10.0024 6.8125 10.3045 6.68739 10.5272 6.46469C10.7499 6.24199 10.875 5.93994 10.875 5.625Z" fill="white"/>
</svg>
