<svg width="22" height="23" viewBox="0 0 22 23" fill="none" xmlns="http://www.w3.org/2000/svg">
<path d="M0 5.5C0 2.73858 2.23858 0.5 5 0.5C7.76142 0.5 10 2.73858 10 5.5C10 8.26142 7.76142 10.5 5 10.5C2.23858 10.5 0 8.26142 0 5.5Z" fill="white"/>
<path d="M12 5.5C12 2.73858 14.2386 0.5 17 0.5C19.7614 0.5 22 2.73858 22 5.5C22 8.26142 19.7614 10.5 17 10.5C14.2386 10.5 12 8.26142 12 5.5Z" fill="white"/>
<path d="M0 17.5C0 14.7386 2.23858 12.5 5 12.5C7.76142 12.5 10 14.7386 10 17.5C10 20.2614 7.76142 22.5 5 22.5C2.23858 22.5 0 20.2614 0 17.5Z" fill="white"/>
<path d="M12 17.5C12 14.7386 14.2386 12.5 17 12.5C19.7614 12.5 22 14.7386 22 17.5C22 20.2614 19.7614 22.5 17 22.5C14.2386 22.5 12 20.2614 12 17.5Z" fill="white"/>
</svg>
