<svg width="18" height="21" viewBox="0 0 18 21" fill="none" xmlns="http://www.w3.org/2000/svg">
<path d="M17.3652 6.04102L11.8965 0.572266C11.8239 0.499739 11.7377 0.442228 11.6429 0.403019C11.548 0.363809 11.4464 0.34367 11.3438 0.34375H1.96875C1.55435 0.34375 1.15692 0.50837 0.863896 0.801396C0.57087 1.09442 0.40625 1.49185 0.40625 1.90625V19.0938C0.40625 19.5082 0.57087 19.9056 0.863896 20.1986C1.15692 20.4916 1.55435 20.6562 1.96875 20.6562H16.0312C16.4457 20.6562 16.8431 20.4916 17.1361 20.1986C17.4291 19.9056 17.5938 19.5082 17.5938 19.0938V6.59375C17.5938 6.49112 17.5737 6.38949 17.5345 6.29465C17.4953 6.19981 17.4378 6.11362 17.3652 6.04102ZM12.125 15.1875H5.875C5.6678 15.1875 5.46909 15.1052 5.32257 14.9587C5.17606 14.8122 5.09375 14.6135 5.09375 14.4062C5.09375 14.199 5.17606 14.0003 5.32257 13.8538C5.46909 13.7073 5.6678 13.625 5.875 13.625H12.125C12.3322 13.625 12.5309 13.7073 12.6774 13.8538C12.8239 14.0003 12.9062 14.199 12.9062 14.4062C12.9062 14.6135 12.8239 14.8122 12.6774 14.9587C12.5309 15.1052 12.3322 15.1875 12.125 15.1875ZM12.125 12.0625H5.875C5.6678 12.0625 5.46909 11.9802 5.32257 11.8337C5.17606 11.6872 5.09375 11.4885 5.09375 11.2812C5.09375 11.074 5.17606 10.8753 5.32257 10.7288C5.46909 10.5823 5.6678 10.5 5.875 10.5H12.125C12.3322 10.5 12.5309 10.5823 12.6774 10.7288C12.8239 10.8753 12.9062 11.074 12.9062 11.2812C12.9062 11.4885 12.8239 11.6872 12.6774 11.8337C12.5309 11.9802 12.3322 12.0625 12.125 12.0625ZM11.3438 6.59375V2.29688L15.6406 6.59375H11.3438Z" fill="white" fill-opacity="0.1"/>
</svg>
