<svg width="17" height="15" viewBox="0 0 17 15" fill="none" xmlns="http://www.w3.org/2000/svg">
<path d="M9.00633 3.03451C9.03784 2.59799 9.18201 2.17709 9.42475 1.8129C9.66749 1.44872 10.0005 1.1537 10.3913 0.956643C10.7821 0.759582 11.2173 0.667215 11.6544 0.688559C12.0916 0.709903 12.5157 0.844227 12.8855 1.07842C12.9277 1.10608 12.9618 1.14461 12.984 1.18997C13.0063 1.23533 13.0159 1.28584 13.0118 1.3362C13.0078 1.38655 12.9903 1.4349 12.9611 1.47614C12.932 1.51739 12.8922 1.55002 12.8461 1.57061C12.2034 1.85978 11.6578 2.32836 11.2749 2.92007C10.8919 3.51177 10.688 4.20144 10.6875 4.90623C10.6875 4.9885 10.6875 5.07076 10.6959 5.15162C10.6998 5.20273 10.6896 5.25393 10.6665 5.29968C10.6434 5.34543 10.6083 5.384 10.5648 5.41122C10.5214 5.43843 10.4714 5.45326 10.4201 5.45411C10.3689 5.45495 10.3184 5.44177 10.2741 5.416C9.85969 5.17898 9.52079 4.82961 9.29647 4.40823C9.07216 3.98684 8.97157 3.51062 9.00633 3.03451ZM16.875 10.2929C16.876 10.6143 16.787 10.9296 16.6179 11.203C16.4489 11.4764 16.2067 11.697 15.9187 11.8397L15.8878 11.8538L13.1576 13.0168C13.1306 13.0287 13.1026 13.0381 13.0739 13.0449L8.57391 14.1699C8.52934 14.1814 8.48352 14.1873 8.4375 14.1875H1.125C0.826631 14.1875 0.540483 14.069 0.329505 13.858C0.118526 13.647 0 13.3609 0 13.0625V10.25C0 9.95161 0.118526 9.66547 0.329505 9.45449C0.540483 9.24351 0.826631 9.12498 1.125 9.12498H3.14227L4.73273 7.53381C4.94128 7.32433 5.18928 7.15825 5.46239 7.04516C5.7355 6.93208 6.02831 6.87424 6.32391 6.87498H9.84375C10.1409 6.87495 10.4341 6.94217 10.7016 7.0716C10.969 7.20103 11.2037 7.38932 11.3881 7.62235C11.5724 7.85539 11.7016 8.12712 11.7659 8.41718C11.8303 8.70725 11.8282 9.00812 11.7598 9.29725L14.7016 8.62084C14.9577 8.55302 15.226 8.54491 15.4857 8.59714C15.7455 8.64937 15.9897 8.76054 16.1997 8.92209C16.4097 9.08364 16.5798 9.29124 16.6969 9.5289C16.814 9.76657 16.8749 10.0279 16.875 10.2929ZM15.75 10.2929C15.7499 10.1999 15.7284 10.1081 15.6871 10.0248C15.6458 9.94144 15.5859 9.86873 15.512 9.81228C15.4381 9.75584 15.3522 9.71719 15.2609 9.69932C15.1696 9.68146 15.0754 9.68487 14.9857 9.70928L14.9639 9.7149L10.253 10.7984C10.2116 10.8076 10.1694 10.8124 10.1271 10.8125H7.875C7.72581 10.8125 7.58274 10.7532 7.47725 10.6477C7.37176 10.5422 7.3125 10.3992 7.3125 10.25C7.3125 10.1008 7.37176 9.95772 7.47725 9.85223C7.58274 9.74675 7.72581 9.68748 7.875 9.68748H9.84375C10.0675 9.68748 10.2821 9.59859 10.4404 9.44035C10.5986 9.28212 10.6875 9.06751 10.6875 8.84373C10.6875 8.61996 10.5986 8.40535 10.4404 8.24711C10.2821 8.08888 10.0675 7.99998 9.84375 7.99998H6.32391C6.17611 7.99951 6.0297 8.02842 5.89318 8.08503C5.75666 8.14164 5.63276 8.22483 5.52867 8.32975L3.9375 9.92022V13.0625H8.36719L12.7568 11.9649L15.4287 10.8272C15.5259 10.776 15.6073 10.6991 15.6639 10.6049C15.7206 10.5107 15.7503 10.4028 15.75 10.2929ZM11.8125 4.90623C11.8125 5.40687 11.961 5.89626 12.2391 6.31252C12.5172 6.72878 12.9126 7.05322 13.3751 7.2448C13.8376 7.43639 14.3466 7.48651 14.8376 7.38885C15.3286 7.29118 15.7796 7.0501 16.1336 6.6961C16.4876 6.34209 16.7287 5.89107 16.8264 5.40005C16.924 4.90904 16.8739 4.40009 16.6823 3.93757C16.4907 3.47504 16.1663 3.07971 15.75 2.80157C15.3338 2.52344 14.8444 2.37498 14.3437 2.37498C13.6724 2.37498 13.0286 2.64167 12.5539 3.11637C12.0792 3.59107 11.8125 4.2349 11.8125 4.90623Z" fill="white"/>
</svg>
