<svg width="18" height="14" viewBox="0 0 18 14" fill="none" xmlns="http://www.w3.org/2000/svg">
<path d="M15.8906 4.19312C15.8625 4.1228 15.833 4.05249 15.8027 3.98218C15.3491 2.93595 14.6149 2.03557 13.6814 1.38062H15.1875C15.3367 1.38062 15.4798 1.32135 15.5852 1.21586C15.6907 1.11037 15.75 0.9673 15.75 0.818115C15.75 0.668931 15.6907 0.525857 15.5852 0.420368C15.4798 0.314878 15.3367 0.255615 15.1875 0.255615H7.875C6.31976 0.25759 4.82213 0.844381 3.67951 1.89947C2.53689 2.95455 1.83285 4.40077 1.70719 5.95093C1.2213 6.07171 0.789581 6.3511 0.480367 6.74488C0.171152 7.13866 0.00211044 7.62432 0 8.12499C0 8.27417 0.0592632 8.41725 0.164752 8.52274C0.270242 8.62823 0.413316 8.68749 0.5625 8.68749C0.711684 8.68749 0.854758 8.62823 0.960248 8.52274C1.06574 8.41725 1.125 8.27417 1.125 8.12499C1.12513 7.91987 1.18134 7.71869 1.28755 7.54321C1.39375 7.36772 1.54592 7.22462 1.72758 7.12936C1.86759 8.39137 2.39382 9.57938 3.23438 10.5311L4.1175 13.0033C4.19557 13.2219 4.33939 13.4111 4.52923 13.5448C4.71907 13.6785 4.94562 13.7502 5.17781 13.75H6.07219C6.30426 13.75 6.53065 13.6783 6.72035 13.5446C6.91005 13.4109 7.05376 13.2218 7.1318 13.0033L7.2668 12.625H11.2957L11.4307 13.0033C11.5087 13.2218 11.6525 13.4109 11.8421 13.5446C12.0318 13.6783 12.2582 13.75 12.4903 13.75H13.3847C13.6168 13.75 13.8432 13.6783 14.0329 13.5446C14.2225 13.4109 14.3663 13.2218 14.4443 13.0033L15.5841 9.81249H15.75C16.1976 9.81249 16.6268 9.6347 16.9432 9.31823C17.2597 9.00177 17.4375 8.57254 17.4375 8.12499V5.87499C17.4376 5.45174 17.2786 5.04392 16.9921 4.73239C16.7055 4.42087 16.3124 4.22839 15.8906 4.19312ZM10.6875 3.06249H7.875C7.72582 3.06249 7.58274 3.00323 7.47725 2.89774C7.37176 2.79225 7.3125 2.64917 7.3125 2.49999C7.3125 2.35081 7.37176 2.20773 7.47725 2.10224C7.58274 1.99675 7.72582 1.93749 7.875 1.93749H10.6875C10.8367 1.93749 10.9798 1.99675 11.0852 2.10224C11.1907 2.20773 11.25 2.35081 11.25 2.49999C11.25 2.64917 11.1907 2.79225 11.0852 2.89774C10.9798 3.00323 10.8367 3.06249 10.6875 3.06249ZM12.6562 6.99999C12.4894 6.99999 12.3262 6.95051 12.1875 6.85779C12.0487 6.76508 11.9406 6.6333 11.8767 6.47913C11.8129 6.32495 11.7962 6.1553 11.8287 5.99163C11.8613 5.82796 11.9416 5.67762 12.0596 5.55962C12.1776 5.44162 12.328 5.36126 12.4916 5.3287C12.6553 5.29615 12.825 5.31286 12.9791 5.37672C13.1333 5.44058 13.2651 5.54872 13.3578 5.68748C13.4505 5.82623 13.5 5.98936 13.5 6.15624C13.5 6.38002 13.4111 6.59463 13.2529 6.75286C13.0946 6.9111 12.88 6.99999 12.6562 6.99999Z" fill="white"/>
</svg>
