<svg width="26" height="25" viewBox="0 0 26 25" fill="none" xmlns="http://www.w3.org/2000/svg">
<path d="M20.6998 17.3294C19.0852 17.63 17.8582 17.2855 16.854 16.0813C16.104 15.1825 15.2096 14.4026 14.367 13.5821C13.5495 12.785 12.7273 12.7631 11.8894 13.557C10.9793 14.4198 10.0567 15.2795 9.23138 16.2207C8.43899 17.1242 7.51951 17.5423 6.33014 17.4202C6.0226 17.3889 5.70721 17.4155 5.29768 17.4155C4.51785 16.6122 3.69094 15.7775 2.87972 14.9256C1.60719 13.5899 1.54443 11.6074 2.78401 10.2419C3.60621 9.33523 4.51157 8.50214 5.38712 7.62835C5.99906 7.62835 6.62356 7.525 7.19314 7.6581C7.7737 7.79434 8.39035 8.06055 8.8297 8.4489C9.88412 9.3822 10.8413 10.4267 11.8455 11.4195C12.7116 12.2761 13.5103 12.2949 14.378 11.4586C15.1672 10.6976 15.9769 9.94907 16.6924 9.12069C17.7154 7.93527 18.9095 7.31986 20.6277 7.727C21.4655 8.55539 22.4713 9.43701 23.3406 10.4361C24.4594 11.7217 24.3323 13.6056 23.1382 14.8567C22.327 15.707 21.4891 16.5323 20.6983 17.3325L20.6998 17.3294Z" fill="white" fill-opacity="0.1"/>
<path d="M6.64082 6.67469C8.08752 5.15729 9.48872 3.54281 11.05 2.09744C12.0903 1.13439 13.912 1.16101 14.9727 2.12876C16.5245 3.5475 17.9335 5.12128 19.4587 6.68252C18.0497 6.58543 17.1098 7.37153 16.2295 8.3017C15.4403 9.13635 14.6024 9.92559 13.7959 10.7461C13.3377 11.2112 12.914 11.2206 12.4543 10.7446C11.7639 10.0305 11.0405 9.34932 10.3564 8.62899C9.30199 7.51873 8.25384 6.41944 6.64082 6.67312V6.67469Z" fill="white" fill-opacity="0.1"/>
<path d="M6.57335 18.5132C8.16126 18.5696 9.18431 17.6739 10.154 16.6278C10.8632 15.8621 11.6227 15.1417 12.3743 14.4151C12.5908 14.2053 12.8497 14.0424 13.1306 13.8263C13.413 14.0299 13.6625 14.1693 13.8602 14.3603C14.629 15.1057 15.4057 15.8433 16.1322 16.6294C17.0407 17.6128 17.9979 18.4662 19.4995 18.3488C19.5183 18.413 19.5371 18.4772 19.556 18.5414C18.4074 19.6657 17.262 20.7932 16.1071 21.9113C15.696 22.3091 15.2943 22.735 14.8236 23.0529C13.6295 23.8578 11.9349 23.8014 10.8883 22.8243C9.40398 21.4368 8.00906 19.9554 6.57648 18.5148L6.57335 18.5132Z" fill="white" fill-opacity="0.1"/>
</svg>
