<svg width="16" height="16" viewBox="0 0 16 16" fill="none" xmlns="http://www.w3.org/2000/svg">
<path d="M13.5439 11.4771C12.3814 11.6936 11.4979 11.4456 10.7749 10.5785C10.2349 9.93137 9.59092 9.36989 8.98424 8.77909C8.39565 8.2052 7.80366 8.18941 7.20038 8.76105C6.54513 9.38229 5.88084 10.0013 5.2866 10.6789C4.71608 11.3294 4.05405 11.6305 3.1977 11.5425C2.97627 11.52 2.7492 11.5392 2.45433 11.5392C1.89285 10.9608 1.29748 10.3598 0.713401 9.74646C-0.20282 8.78472 -0.24801 7.35734 0.644486 6.37417C1.23647 5.72136 1.88833 5.12155 2.51873 4.49241C2.95933 4.49241 3.40897 4.418 3.81906 4.51384C4.23707 4.61193 4.68106 4.8036 4.99738 5.08321C5.75657 5.75519 6.44571 6.50722 7.16875 7.22204C7.79237 7.83877 8.3674 7.8523 8.99215 7.25023C9.56041 6.70227 10.1434 6.16334 10.6585 5.5669C11.3951 4.7134 12.2548 4.2703 13.4919 4.56345C14.0952 5.15988 14.8194 5.79465 15.4452 6.51398C16.2507 7.43964 16.1592 8.796 15.2995 9.69685C14.7154 10.3091 14.1121 10.9033 13.5428 11.4794L13.5439 11.4771Z" fill="white"/>
<path d="M3.4214 3.80578C4.46302 2.71325 5.47188 1.55082 6.59597 0.51016C7.34499 -0.183239 8.65662 -0.164072 9.42033 0.53271C10.5376 1.55421 11.5521 2.68732 12.6503 3.81142C11.6358 3.74151 10.959 4.30751 10.3253 4.97723C9.75699 5.57818 9.15371 6.14642 8.57302 6.73722C8.24314 7.07208 7.93811 7.07885 7.60709 6.7361C7.11 6.22197 6.58919 5.73151 6.09663 5.21287C5.33744 4.41349 4.58277 3.622 3.4214 3.80465V3.80578Z" fill="white"/>
<path d="M3.37281 12.3295C4.51611 12.3701 5.2527 11.7252 5.95088 10.972C6.46153 10.4207 7.00832 9.90205 7.54947 9.37891C7.70537 9.22782 7.89178 9.11057 8.09401 8.95497C8.29736 9.10155 8.47699 9.20189 8.61934 9.33944C9.17291 9.87612 9.73213 10.4072 10.2552 10.9732C10.9093 11.6812 11.5985 12.2957 12.6796 12.2111C12.6932 12.2574 12.7067 12.3036 12.7203 12.3498C11.8933 13.1593 11.0686 13.9711 10.2371 14.7761C9.94113 15.0625 9.65192 15.3692 9.313 15.5981C8.45326 16.1776 7.23314 16.137 6.4796 15.4335C5.41087 14.4345 4.40653 13.3679 3.37507 12.3306L3.37281 12.3295Z" fill="white"/>
</svg>
