<svg width="12" height="13" viewBox="0 0 12 13" fill="none" xmlns="http://www.w3.org/2000/svg">
<path d="M11.25 2.34375C11.25 2.46807 11.2006 2.5873 11.1127 2.67521C11.0248 2.76311 10.9056 2.8125 10.7812 2.8125H10.3125V11.25C10.3125 11.4986 10.2137 11.7371 10.0379 11.9129C9.8621 12.0887 9.62364 12.1875 9.375 12.1875H1.875C1.62636 12.1875 1.3879 12.0887 1.21209 11.9129C1.03627 11.7371 0.9375 11.4986 0.9375 11.25V2.8125H0.46875C0.34443 2.8125 0.225201 2.76311 0.137294 2.67521C0.0493861 2.5873 0 2.46807 0 2.34375C0 2.21943 0.0493861 2.1002 0.137294 2.01229C0.225201 1.92439 0.34443 1.875 0.46875 1.875H10.7812C10.9056 1.875 11.0248 1.92439 11.1127 2.01229C11.2006 2.1002 11.25 2.21943 11.25 2.34375ZM3.28125 0.9375H7.96875C8.09307 0.9375 8.2123 0.888114 8.30021 0.800206C8.38811 0.712299 8.4375 0.59307 8.4375 0.46875C8.4375 0.34443 8.38811 0.225201 8.30021 0.137294C8.2123 0.049386 8.09307 0 7.96875 0H3.28125C3.15693 0 3.0377 0.049386 2.94979 0.137294C2.86189 0.225201 2.8125 0.34443 2.8125 0.46875C2.8125 0.59307 2.86189 0.712299 2.94979 0.800206C3.0377 0.888114 3.15693 0.9375 3.28125 0.9375Z" fill="white" fill-opacity="0.1"/>
</svg>
